<?xml version="1.0" encoding="UTF-8" standalone="no"?>
<svg
   xmlns:dc="http://purl.org/dc/elements/1.1/"
   xmlns:cc="http://creativecommons.org/ns#"
   xmlns:rdf="http://www.w3.org/1999/02/22-rdf-syntax-ns#"
   xmlns:svg="http://www.w3.org/2000/svg"
   xmlns="http://www.w3.org/2000/svg"
   xmlns:sodipodi="http://sodipodi.sourceforge.net/DTD/sodipodi-0.dtd"
   xmlns:inkscape="http://www.inkscape.org/namespaces/inkscape"
   version="1.1"
   id="svg3414"
   viewBox="0 0 219.41125 47.697342"
   height="13.46125mm"
   width="61.922729mm"
   inkscape:version="0.91 r13725"
   sodipodi:docname="sovend_logo_top.svg">
  <sodipodi:namedview
     pagecolor="#ffffff"
     bordercolor="#666666"
     borderopacity="1"
     objecttolerance="10"
     gridtolerance="10"
     guidetolerance="10"
     inkscape:pageopacity="0"
     inkscape:pageshadow="2"
     inkscape:window-width="1920"
     inkscape:window-height="1123"
     id="namedview14"
     showgrid="false"
     fit-margin-top="3"
     fit-margin-left="0"
     fit-margin-right="0"
     fit-margin-bottom="3"
     inkscape:zoom="1.5632746"
     inkscape:cx="-2.2388752"
     inkscape:cy="39.71058"
     inkscape:window-x="0"
     inkscape:window-y="25"
     inkscape:window-maximized="1"
     inkscape:current-layer="g3366" />
  <defs
     id="defs3416">
    <clipPath
       clipPathUnits="userSpaceOnUse"
       id="clipPath3368">
      <path
         d="m 0,0 595.276,0 0,841.89 L 0,841.89 0,0 Z"
         id="path3370"
         inkscape:connector-curvature="0" />
    </clipPath>
  </defs>
  <metadata
     id="metadata3419">
    <rdf:RDF>
      <cc:Work
         rdf:about="">
        <dc:format>image/svg+xml</dc:format>
        <dc:type
           rdf:resource="http://purl.org/dc/dcmitype/StillImage" />
        <dc:title></dc:title>
      </cc:Work>
    </rdf:RDF>
  </metadata>
  <g
     transform="translate(-236.00867,-239.57229)"
     id="layer1">
    <g
       id="g3364"
       transform="matrix(1.25,0,0,-1.25,-26.332957,915.47246)">
      <g
         id="g3366"
         clip-path="url(#clipPath3368)">
        <g
           id="g3372"
           transform="translate(231.8033,531.7662)">
          <path
             d="m 0,0 -15.27,0 c -2.52,0 -4.11,-0.75 -5.19,-1.98 -0.93,-1.05 -1.47,-2.49 -1.47,-4.14 0,-1.59 0.75,-3.06 1.89,-4.08 1.08,-0.96 2.49,-1.56 4.77,-1.56 l 9.75,0 c 1.11,0 1.83,-0.36 2.31,-0.87 0.42,-0.45 0.66,-0.99 0.66,-1.59 0,-0.63 -0.21,-1.32 -0.66,-1.83 -0.45,-0.51 -1.11,-0.87 -2.31,-0.87 l -15.87,0 0,-3.36 15.84,0 c 2.25,0 3.78,0.69 4.86,1.8 1.02,1.05 1.65,2.43 1.65,4.05 0,1.56 -0.63,2.94 -1.59,3.99 -1.08,1.17 -2.61,1.89 -4.92,1.89 l -9.9,0 c -1.02,0 -1.74,0.3 -2.25,0.81 -0.45,0.45 -0.72,1.05 -0.72,1.74 0,0.66 0.24,1.23 0.63,1.68 0.48,0.54 1.2,0.87 2.31,0.87 L 0,-3.45 0,0 Z M 10.35,-2.76 C 8.4,-4.53 7.26,-7.05 7.26,-10.14 c 0,-3.06 1.14,-5.64 3.09,-7.44 2.16,-1.98 4.41,-2.7 8.46,-2.7 l 2.7,0 c 4.05,0 6.3,0.69 8.46,2.67 1.95,1.8 3.09,4.41 3.09,7.47 0,3.09 -1.14,5.61 -3.09,7.38 C 27.81,-0.78 25.56,0 21.51,0 l -2.7,0 c -4.05,0 -6.3,-0.78 -8.46,-2.76 m 19.23,-7.44 c 0,-1.8 -0.72,-3.45 -1.86,-4.65 -1.2,-1.26 -2.91,-2.07 -5.49,-2.07 l -4.14,0 c -2.58,0 -4.29,0.81 -5.49,2.07 -1.14,1.2 -1.86,2.85 -1.86,4.65 0,2.1 0.93,3.99 2.43,5.22 1.14,0.96 2.64,1.53 5.01,1.53 l 3.96,0 c 2.37,0 3.87,-0.57 5.01,-1.53 1.5,-1.23 2.43,-3.12 2.43,-5.22 m 15.899,-7.5 c 1.021,-2.04 2.491,-3 4.861,-3 2.639,0 3.989,1.17 5.31,3.87 l 7.739,15.93 c 0.15,0.33 0.241,0.6 0.331,0.9 L 59.609,0 C 59.549,-0.24 59.46,-0.48 59.37,-0.69 l -7.201,-15.39 c -0.419,-0.87 -0.959,-1.17 -1.769,-1.17 -0.78,0 -1.38,0.36 -1.77,1.2 L 41.19,-0.66 C 41.099,-0.45 41.01,-0.21 40.949,0 L 36.75,0 c 0.06,-0.27 0.15,-0.57 0.329,-0.9 l 8.4,-16.8 z M 72.239,0 c -1.92,0 -2.88,-0.9 -2.88,-2.73 l 0,-14.73 c 0,-1.89 0.96,-2.82 2.85,-2.82 l 18.48,0 0,3.36 -17.13,0 c -0.48,0 -0.72,0.24 -0.72,0.72 l 0,4.44 17.76,0 0,3.3 -17.76,0 0,4.32 c 0,0.45 0.24,0.69 0.72,0.69 l 17.13,0 0,3.45 -18.45,0 z m 50.76,0 -3.54,0 0,-16.44 c 0,-0.57 -0.3,-0.78 -0.78,-0.78 -0.36,0 -0.66,0.15 -0.9,0.42 l -11.94,15.45 c -1.05,1.38 -2.16,1.8 -4.11,1.8 -2.4,0 -3.96,-1.26 -3.96,-3.78 l 0,-16.95 3.51,0 0,16.32 c 0,0.6 0.45,0.87 0.93,0.87 0.39,0 0.63,-0.15 0.84,-0.42 l 12.51,-15.69 c 0.84,-1.05 1.95,-1.5 3.75,-1.5 2.07,0 3.69,1.38 3.69,3.87 l 0,16.83 z m 8.88,0 c -0.87,0 -1.32,-0.42 -1.32,-1.26 l 0,-17.73 c 0,-0.87 0.45,-1.29 1.32,-1.29 l 10.17,0 c 4.05,0 6.3,0.69 8.46,2.67 1.95,1.8 3.09,4.41 3.09,7.47 0,3.09 -1.14,5.61 -3.09,7.38 -2.16,1.98 -4.41,2.76 -8.46,2.76 l -10.17,0 z m 18.24,-10.2 c 0,-1.8 -0.72,-3.45 -1.86,-4.65 -1.2,-1.26 -2.91,-2.07 -5.49,-2.07 l -8.22,0 c -0.33,0 -0.51,0.15 -0.51,0.51 l 0,12.42 c 0,0.36 0.18,0.54 0.51,0.54 l 8.13,0 c 2.37,0 3.87,-0.57 5.01,-1.53 1.5,-1.23 2.43,-3.12 2.43,-5.22"
             style="fill:#ffffff;fill-opacity:1;fill-rule:nonzero;stroke:none"
             id="path3374"
             inkscape:connector-curvature="0" />
        </g>
      </g>
    </g>
  </g>
</svg>
