<?xml version="1.0" encoding="UTF-8" standalone="no"?>
<svg
   xmlns:dc="http://purl.org/dc/elements/1.1/"
   xmlns:cc="http://creativecommons.org/ns#"
   xmlns:rdf="http://www.w3.org/1999/02/22-rdf-syntax-ns#"
   xmlns:svg="http://www.w3.org/2000/svg"
   xmlns="http://www.w3.org/2000/svg"
   version="1.1"
   id="svg2"
   viewBox="0 0 219.41125 44.320125"
   height="12.508124mm"
   width="61.922729mm">
  <defs
     id="defs4">
    <clipPath
       clipPathUnits="userSpaceOnUse"
       id="clipPath3350">
      <path
         d="m 0,0 595.276,0 0,841.89 L 0,841.89 0,0 Z"
         id="path3352" />
    </clipPath>
    <clipPath
       clipPathUnits="userSpaceOnUse"
       id="clipPath3368">
      <path
         d="m 0,0 595.276,0 0,841.89 L 0,841.89 0,0 Z"
         id="path3370" />
    </clipPath>
  </defs>
  <metadata
     id="metadata7">
    <rdf:RDF>
      <cc:Work
         rdf:about="">
        <dc:format>image/svg+xml</dc:format>
        <dc:type
           rdf:resource="http://purl.org/dc/dcmitype/StillImage" />
        <dc:title></dc:title>
      </cc:Work>
    </rdf:RDF>
  </metadata>
  <g
     transform="translate(-245.18487,-674.06584)"
     id="layer1">
    <g
       id="g3344"
       transform="matrix(1.25,0,0,-1.25,-17.0475,964.61709)">
      <g
         id="g3346">
        <g
           id="g3348"
           clip-path="url(#clipPath3350)">
          <g
             id="g3354"
             transform="translate(231.7159,231.991)">
            <path
               d="m 0,0 -15.27,0 c -2.52,0 -4.11,-0.75 -5.19,-1.98 -0.93,-1.05 -1.47,-2.49 -1.47,-4.14 0,-1.59 0.75,-3.06 1.89,-4.08 1.08,-0.96 2.49,-1.56 4.77,-1.56 l 9.75,0 c 1.11,0 1.83,-0.36 2.31,-0.87 0.42,-0.45 0.66,-0.99 0.66,-1.59 0,-0.63 -0.21,-1.32 -0.66,-1.83 -0.45,-0.51 -1.11,-0.87 -2.31,-0.87 l -15.87,0 0,-3.36 15.84,0 c 2.25,0 3.78,0.69 4.86,1.8 1.02,1.05 1.65,2.43 1.65,4.05 0,1.56 -0.63,2.94 -1.59,3.99 -1.08,1.17 -2.61,1.89 -4.92,1.89 l -9.9,0 c -1.02,0 -1.74,0.3 -2.25,0.81 -0.45,0.45 -0.72,1.05 -0.72,1.74 0,0.66 0.24,1.23 0.63,1.68 0.48,0.54 1.2,0.87 2.31,0.87 L 0,-3.45 0,0 Z M 10.35,-2.76 C 8.4,-4.53 7.26,-7.05 7.26,-10.14 c 0,-3.06 1.14,-5.64 3.09,-7.44 2.16,-1.98 4.41,-2.7 8.46,-2.7 l 2.7,0 c 4.05,0 6.3,0.69 8.46,2.67 1.95,1.8 3.09,4.41 3.09,7.47 0,3.09 -1.14,5.61 -3.09,7.38 C 27.81,-0.78 25.56,0 21.51,0 l -2.7,0 c -4.05,0 -6.3,-0.78 -8.46,-2.76 m 19.23,-7.44 c 0,-1.8 -0.72,-3.45 -1.86,-4.65 -1.2,-1.26 -2.91,-2.07 -5.49,-2.07 l -4.14,0 c -2.58,0 -4.29,0.81 -5.49,2.07 -1.14,1.2 -1.86,2.85 -1.86,4.65 0,2.1 0.93,3.99 2.43,5.22 1.14,0.96 2.64,1.53 5.01,1.53 l 3.96,0 c 2.37,0 3.87,-0.57 5.01,-1.53 1.5,-1.23 2.43,-3.12 2.43,-5.22 m 15.9,-7.5 c 1.019,-2.04 2.489,-3 4.86,-3 2.64,0 3.99,1.17 5.31,3.87 l 7.74,15.93 c 0.15,0.33 0.24,0.6 0.329,0.9 L 59.61,0 C 59.55,-0.24 59.46,-0.48 59.369,-0.69 L 52.17,-16.08 c -0.421,-0.87 -0.96,-1.17 -1.77,-1.17 -0.781,0 -1.38,0.36 -1.77,1.2 L 41.189,-0.66 C 41.1,-0.45 41.01,-0.21 40.95,0 l -4.201,0 c 0.06,-0.27 0.151,-0.57 0.331,-0.9 l 8.4,-16.8 z M 72.239,0 c -1.92,0 -2.88,-0.9 -2.88,-2.73 l 0,-14.73 c 0,-1.89 0.96,-2.82 2.85,-2.82 l 18.48,0 0,3.36 -17.13,0 c -0.48,0 -0.72,0.24 -0.72,0.72 l 0,4.44 17.76,0 0,3.3 -17.76,0 0,4.32 c 0,0.45 0.24,0.69 0.72,0.69 l 17.13,0 0,3.45 -18.45,0 z m 50.76,0 -3.54,0 0,-16.44 c 0,-0.57 -0.3,-0.78 -0.78,-0.78 -0.36,0 -0.66,0.15 -0.9,0.42 l -11.94,15.45 c -1.05,1.38 -2.16,1.8 -4.11,1.8 -2.4,0 -3.96,-1.26 -3.96,-3.78 l 0,-16.95 3.51,0 0,16.32 c 0,0.6 0.45,0.87 0.93,0.87 0.39,0 0.63,-0.15 0.84,-0.42 l 12.51,-15.69 c 0.84,-1.05 1.95,-1.5 3.75,-1.5 2.07,0 3.69,1.38 3.69,3.87 l 0,16.83 z m 8.88,0 c -0.87,0 -1.32,-0.42 -1.32,-1.26 l 0,-17.73 c 0,-0.87 0.45,-1.29 1.32,-1.29 l 10.17,0 c 4.05,0 6.3,0.69 8.46,2.67 1.95,1.8 3.09,4.41 3.09,7.47 0,3.09 -1.14,5.61 -3.09,7.38 -2.16,1.98 -4.41,2.76 -8.46,2.76 l -10.17,0 z m 18.24,-10.2 c 0,-1.8 -0.72,-3.45 -1.86,-4.65 -1.2,-1.26 -2.91,-2.07 -5.49,-2.07 l -8.22,0 c -0.33,0 -0.51,0.15 -0.51,0.51 l 0,12.42 c 0,0.36 0.18,0.54 0.51,0.54 l 8.13,0 c 2.37,0 3.87,-0.57 5.01,-1.53 1.5,-1.23 2.43,-3.12 2.43,-5.22"
               style="fill:#c61e8a;fill-opacity:1;fill-rule:nonzero;stroke:none"
               id="path3356" />
          </g>
          <g
             id="g3358"
             transform="translate(235.7354,201.5909)">
            <path
               d="m 0,0 c -0.391,0.447 -0.839,0.601 -1.4,0.601 -0.805,0 -1.602,-0.447 -1.602,-1.406 0,-1.814 2.541,-1.036 2.541,-2.437 0,-0.581 -0.567,-0.903 -1.065,-0.903 -0.518,0 -0.917,0.238 -1.127,0.602 l -0.454,-0.329 c 0.377,-0.517 0.958,-0.734 1.56,-0.734 0.785,0 1.631,0.531 1.631,1.434 0,1.786 -2.541,1.079 -2.541,2.416 0,0.623 0.539,0.896 1.057,0.896 0.421,0 0.743,-0.161 0.96,-0.483 L 0,0 Z m 6.286,-2.002 c 0,1.505 -1.105,2.603 -2.583,2.603 -1.477,0 -2.582,-1.098 -2.582,-2.603 0,-1.506 1.105,-2.604 2.582,-2.604 1.478,0 2.583,1.098 2.583,2.604 m -0.545,0 c 0,-1.142 -0.763,-2.143 -2.038,-2.143 -1.274,0 -2.037,1.001 -2.037,2.143 0,1.141 0.763,2.142 2.037,2.142 1.275,0 2.038,-1.001 2.038,-2.142 m 5.571,-1.401 c -0.371,-0.574 -0.903,-0.742 -1.421,-0.742 -1.274,0 -2.037,1.001 -2.037,2.143 0,1.141 0.763,2.142 2.037,2.142 0.525,0 1.078,-0.329 1.274,-0.651 l 0.441,0.329 c -0.434,0.553 -1.099,0.783 -1.715,0.783 -1.477,0 -2.582,-1.098 -2.582,-2.603 0,-1.506 1.105,-2.604 2.582,-2.604 0.819,0 1.505,0.398 1.834,0.909 l -0.413,0.294 z m 2.114,3.878 -0.503,0 0,-4.955 0.503,0 0,4.955 z m 2.156,-3.653 2.534,0 0.546,-1.302 0.588,0 -2.156,4.955 -0.49,0 -2.155,-4.955 0.588,0 0.545,1.302 z m 1.267,3.066 1.071,-2.605 -2.149,0 1.078,2.605 z m 3.927,0.587 -0.503,0 0,-4.955 2.813,0 0,0.461 -2.31,0 0,4.494 z m 6.412,0 -0.769,0 0,-4.955 0.503,0 0,4.284 0.014,0 1.792,-4.284 0.266,0 1.793,4.284 0.014,0 0,-4.284 0.503,0 0,4.955 -0.769,0 -1.674,-4.031 -1.673,4.031 z m 6.314,-2.61 2.401,0 0,0.461 -2.401,0 0,1.688 2.569,0 0,0.461 -3.072,0 0,-4.955 3.156,0 0,0.461 -2.653,0 0,1.884 z m 3.927,-2.345 1.645,0 c 1.239,0 2.604,0.825 2.604,2.478 0,1.652 -1.365,2.477 -2.604,2.477 l -1.645,0 0,-4.955 z m 0.504,4.494 0.98,0 c 1.512,0 2.219,-0.994 2.219,-2.016 0,-1.023 -0.707,-2.017 -2.219,-2.017 l -0.98,0 0,4.033 z m 5.607,0.461 -0.503,0 0,-4.955 0.503,0 0,4.955 z m 2.156,-3.653 2.534,0 0.546,-1.302 0.588,0 -2.156,4.955 -0.49,0 -2.156,-4.955 0.588,0 0.546,1.302 z m 1.267,3.066 1.071,-2.605 -2.149,0 1.078,2.605 z m 5.586,0.587 -0.56,0 1.883,-4.955 0.504,0 1.931,4.955 -0.545,0 -1.624,-4.199 -0.014,0 -1.575,4.199 z m 5.263,-2.61 2.401,0 0,0.461 -2.401,0 0,1.688 2.569,0 0,0.461 -3.072,0 0,-4.955 3.156,0 0,0.461 -2.653,0 0,1.884 z m 4.627,2.61 -0.629,0 0,-4.955 0.503,0 0,4.242 0.014,0 2.955,-4.242 0.629,0 0,4.955 -0.503,0 0,-4.2 -0.014,0 -2.955,4.2 z m 5.097,-4.955 1.645,0 c 1.239,0 2.603,0.825 2.603,2.478 0,1.652 -1.364,2.477 -2.603,2.477 l -1.645,0 0,-4.955 z m 0.503,4.494 0.981,0 c 1.512,0 2.219,-0.994 2.219,-2.016 0,-1.023 -0.707,-2.017 -2.219,-2.017 l -0.981,0 0,4.033 z m 5.607,0.461 -0.503,0 0,-4.955 0.503,0 0,4.955 z m 2.324,0 -0.629,0 0,-4.955 0.503,0 0,4.242 0.014,0 2.955,-4.242 0.629,0 0,4.955 -0.503,0 0,-4.2 -0.014,0 -2.955,4.2 z m 9.205,-0.538 c -0.44,0.441 -1.007,0.664 -1.791,0.664 -1.478,0 -2.583,-1.098 -2.583,-2.603 0,-1.506 1.105,-2.604 2.583,-2.604 0.602,0 1.323,0.175 1.875,0.503 l 0,2.429 -1.686,0 0,-0.461 1.183,0 0,-1.66 c -0.371,-0.21 -0.861,-0.35 -1.372,-0.35 -1.275,0 -2.038,1.002 -2.038,2.143 0,1.141 0.763,2.142 2.038,2.142 0.609,0 1.078,-0.217 1.414,-0.574 l 0.377,0.371 z m 4.823,0.538 -0.769,0 0,-4.955 0.503,0 0,4.284 0.014,0 1.793,-4.284 0.266,0 1.792,4.284 0.014,0 0,-4.284 0.503,0 0,4.955 -0.769,0 -1.673,-4.031 -1.674,4.031 z m 6.273,-3.653 2.533,0 0.546,-1.302 0.588,0 -2.155,4.955 -0.49,0 -2.156,-4.955 0.588,0 0.546,1.302 z m 1.267,3.066 1.07,-2.605 -2.148,0 1.078,2.605 z m 7.09,-3.291 c -0.371,-0.574 -0.903,-0.742 -1.421,-0.742 -1.274,0 -2.037,1.001 -2.037,2.143 0,1.141 0.763,2.142 2.037,2.142 0.525,0 1.078,-0.329 1.274,-0.651 l 0.441,0.329 c -0.434,0.553 -1.099,0.783 -1.715,0.783 -1.477,0 -2.582,-1.098 -2.582,-2.603 0,-1.506 1.105,-2.604 2.582,-2.604 0.819,0 1.505,0.398 1.834,0.909 l -0.413,0.294 z m 1.611,-1.077 0.503,0 0,2.345 2.703,0 0,-2.345 0.503,0 0,4.955 -0.503,0 0,-2.149 -2.703,0 0,2.149 -0.503,0 0,-4.955 z m 5.907,4.955 -0.503,0 0,-4.955 0.503,0 0,4.955 z m 2.324,0 -0.629,0 0,-4.955 0.503,0 0,4.242 0.014,0 2.955,-4.242 0.629,0 0,4.955 -0.503,0 0,-4.2 -0.014,0 -2.955,4.2 z m 5.67,-2.61 2.401,0 0,0.461 -2.401,0 0,1.688 2.569,0 0,0.461 -3.072,0 0,-4.955 3.156,0 0,0.461 -2.653,0 0,1.884 z M 126.923,0 c -0.391,0.447 -0.839,0.601 -1.4,0.601 -0.805,0 -1.602,-0.447 -1.602,-1.406 0,-1.814 2.541,-1.036 2.541,-2.437 0,-0.581 -0.567,-0.903 -1.065,-0.903 -0.518,0 -0.917,0.238 -1.127,0.602 l -0.454,-0.329 c 0.377,-0.517 0.958,-0.734 1.56,-0.734 0.785,0 1.631,0.531 1.631,1.434 0,1.786 -2.541,1.079 -2.541,2.416 0,0.623 0.539,0.896 1.057,0.896 0.421,0 0.743,-0.161 0.96,-0.483 L 126.923,0 Z"
               style="fill:#231f20;fill-opacity:1;fill-rule:nonzero;stroke:none"
               id="path3360" />
          </g>
        </g>
      </g>
      <g
         id="g3364">
        <g
           id="g3366"
           clip-path="url(#clipPath3368)">
          <g
             id="g3372"
             transform="translate(231.8033,531.7662)">
            <path
               d="m 0,0 -15.27,0 c -2.52,0 -4.11,-0.75 -5.19,-1.98 -0.93,-1.05 -1.47,-2.49 -1.47,-4.14 0,-1.59 0.75,-3.06 1.89,-4.08 1.08,-0.96 2.49,-1.56 4.77,-1.56 l 9.75,0 c 1.11,0 1.83,-0.36 2.31,-0.87 0.42,-0.45 0.66,-0.99 0.66,-1.59 0,-0.63 -0.21,-1.32 -0.66,-1.83 -0.45,-0.51 -1.11,-0.87 -2.31,-0.87 l -15.87,0 0,-3.36 15.84,0 c 2.25,0 3.78,0.69 4.86,1.8 1.02,1.05 1.65,2.43 1.65,4.05 0,1.56 -0.63,2.94 -1.59,3.99 -1.08,1.17 -2.61,1.89 -4.92,1.89 l -9.9,0 c -1.02,0 -1.74,0.3 -2.25,0.81 -0.45,0.45 -0.72,1.05 -0.72,1.74 0,0.66 0.24,1.23 0.63,1.68 0.48,0.54 1.2,0.87 2.31,0.87 L 0,-3.45 0,0 Z M 10.35,-2.76 C 8.4,-4.53 7.26,-7.05 7.26,-10.14 c 0,-3.06 1.14,-5.64 3.09,-7.44 2.16,-1.98 4.41,-2.7 8.46,-2.7 l 2.7,0 c 4.05,0 6.3,0.69 8.46,2.67 1.95,1.8 3.09,4.41 3.09,7.47 0,3.09 -1.14,5.61 -3.09,7.38 C 27.81,-0.78 25.56,0 21.51,0 l -2.7,0 c -4.05,0 -6.3,-0.78 -8.46,-2.76 m 19.23,-7.44 c 0,-1.8 -0.72,-3.45 -1.86,-4.65 -1.2,-1.26 -2.91,-2.07 -5.49,-2.07 l -4.14,0 c -2.58,0 -4.29,0.81 -5.49,2.07 -1.14,1.2 -1.86,2.85 -1.86,4.65 0,2.1 0.93,3.99 2.43,5.22 1.14,0.96 2.64,1.53 5.01,1.53 l 3.96,0 c 2.37,0 3.87,-0.57 5.01,-1.53 1.5,-1.23 2.43,-3.12 2.43,-5.22 m 15.899,-7.5 c 1.021,-2.04 2.491,-3 4.861,-3 2.639,0 3.989,1.17 5.31,3.87 l 7.739,15.93 c 0.15,0.33 0.241,0.6 0.331,0.9 L 59.609,0 C 59.549,-0.24 59.46,-0.48 59.37,-0.69 l -7.201,-15.39 c -0.419,-0.87 -0.959,-1.17 -1.769,-1.17 -0.78,0 -1.38,0.36 -1.77,1.2 L 41.19,-0.66 C 41.099,-0.45 41.01,-0.21 40.949,0 L 36.75,0 c 0.06,-0.27 0.15,-0.57 0.329,-0.9 l 8.4,-16.8 z M 72.239,0 c -1.92,0 -2.88,-0.9 -2.88,-2.73 l 0,-14.73 c 0,-1.89 0.96,-2.82 2.85,-2.82 l 18.48,0 0,3.36 -17.13,0 c -0.48,0 -0.72,0.24 -0.72,0.72 l 0,4.44 17.76,0 0,3.3 -17.76,0 0,4.32 c 0,0.45 0.24,0.69 0.72,0.69 l 17.13,0 0,3.45 -18.45,0 z m 50.76,0 -3.54,0 0,-16.44 c 0,-0.57 -0.3,-0.78 -0.78,-0.78 -0.36,0 -0.66,0.15 -0.9,0.42 l -11.94,15.45 c -1.05,1.38 -2.16,1.8 -4.11,1.8 -2.4,0 -3.96,-1.26 -3.96,-3.78 l 0,-16.95 3.51,0 0,16.32 c 0,0.6 0.45,0.87 0.93,0.87 0.39,0 0.63,-0.15 0.84,-0.42 l 12.51,-15.69 c 0.84,-1.05 1.95,-1.5 3.75,-1.5 2.07,0 3.69,1.38 3.69,3.87 l 0,16.83 z m 8.88,0 c -0.87,0 -1.32,-0.42 -1.32,-1.26 l 0,-17.73 c 0,-0.87 0.45,-1.29 1.32,-1.29 l 10.17,0 c 4.05,0 6.3,0.69 8.46,2.67 1.95,1.8 3.09,4.41 3.09,7.47 0,3.09 -1.14,5.61 -3.09,7.38 -2.16,1.98 -4.41,2.76 -8.46,2.76 l -10.17,0 z m 18.24,-10.2 c 0,-1.8 -0.72,-3.45 -1.86,-4.65 -1.2,-1.26 -2.91,-2.07 -5.49,-2.07 l -8.22,0 c -0.33,0 -0.51,0.15 -0.51,0.51 l 0,12.42 c 0,0.36 0.18,0.54 0.51,0.54 l 8.13,0 c 2.37,0 3.87,-0.57 5.01,-1.53 1.5,-1.23 2.43,-3.12 2.43,-5.22"
               style="fill:#ffffff;fill-opacity:1;fill-rule:nonzero;stroke:none"
               id="path3374" />
          </g>
          <g
             id="g3376"
             transform="translate(235.8228,501.3662)">
            <path
               d="m 0,0 c -0.391,0.447 -0.839,0.601 -1.4,0.601 -0.805,0 -1.602,-0.447 -1.602,-1.406 0,-1.814 2.541,-1.036 2.541,-2.437 0,-0.581 -0.568,-0.903 -1.065,-0.903 -0.518,0 -0.917,0.238 -1.127,0.602 l -0.454,-0.329 c 0.377,-0.517 0.958,-0.734 1.56,-0.734 0.785,0 1.631,0.531 1.631,1.434 0,1.786 -2.541,1.079 -2.541,2.416 0,0.623 0.539,0.896 1.057,0.896 0.421,0 0.743,-0.161 0.96,-0.483 L 0,0 Z m 6.286,-2.002 c 0,1.505 -1.105,2.603 -2.583,2.603 -1.477,0 -2.582,-1.098 -2.582,-2.603 0,-1.506 1.105,-2.604 2.582,-2.604 1.478,0 2.583,1.098 2.583,2.604 m -0.545,0 c 0,-1.142 -0.763,-2.143 -2.038,-2.143 -1.274,0 -2.037,1.001 -2.037,2.143 0,1.141 0.763,2.142 2.037,2.142 1.275,0 2.038,-1.001 2.038,-2.142 m 5.571,-1.401 c -0.371,-0.574 -0.903,-0.742 -1.421,-0.742 -1.274,0 -2.037,1.001 -2.037,2.143 0,1.141 0.763,2.142 2.037,2.142 0.525,0 1.078,-0.329 1.274,-0.651 l 0.441,0.329 c -0.434,0.553 -1.099,0.783 -1.715,0.783 -1.477,0 -2.582,-1.098 -2.582,-2.603 0,-1.506 1.105,-2.604 2.582,-2.604 0.819,0 1.505,0.398 1.834,0.909 l -0.413,0.294 z m 2.114,3.878 -0.503,0 0,-4.955 0.503,0 0,4.955 z m 2.156,-3.653 2.534,0 0.546,-1.302 0.588,0 -2.156,4.955 -0.49,0 -2.155,-4.955 0.588,0 0.545,1.302 z m 1.267,3.066 1.071,-2.605 -2.149,0 1.078,2.605 z m 3.927,0.587 -0.503,0 0,-4.955 2.813,0 0,0.461 -2.31,0 0,4.494 z m 6.412,0 -0.769,0 0,-4.955 0.503,0 0,4.284 0.014,0 1.792,-4.284 0.266,0 1.793,4.284 0.014,0 0,-4.284 0.503,0 0,4.955 -0.769,0 -1.674,-4.031 -1.673,4.031 z m 6.314,-2.61 2.401,0 0,0.461 -2.401,0 0,1.688 2.569,0 0,0.461 -3.072,0 0,-4.955 3.156,0 0,0.461 -2.653,0 0,1.884 z m 3.927,-2.345 1.645,0 c 1.239,0 2.604,0.825 2.604,2.478 0,1.652 -1.365,2.477 -2.604,2.477 l -1.645,0 0,-4.955 z m 0.504,4.494 0.98,0 c 1.512,0 2.219,-0.994 2.219,-2.016 0,-1.023 -0.707,-2.017 -2.219,-2.017 l -0.98,0 0,4.033 z m 5.607,0.461 -0.503,0 0,-4.955 0.503,0 0,4.955 z m 2.156,-3.653 2.534,0 0.546,-1.302 0.588,0 -2.156,4.955 -0.49,0 -2.156,-4.955 0.588,0 0.546,1.302 z m 1.267,3.066 1.071,-2.605 -2.149,0 1.078,2.605 z m 5.586,0.587 -0.56,0 1.883,-4.955 0.504,0 1.931,4.955 -0.545,0 -1.624,-4.199 -0.014,0 -1.575,4.199 z m 5.263,-2.61 2.401,0 0,0.461 -2.401,0 0,1.688 2.569,0 0,0.461 -3.072,0 0,-4.955 3.156,0 0,0.461 -2.653,0 0,1.884 z m 4.627,2.61 -0.629,0 0,-4.955 0.503,0 0,4.242 0.014,0 2.955,-4.242 0.629,0 0,4.955 -0.503,0 0,-4.2 -0.014,0 -2.955,4.2 z m 5.097,-4.955 1.645,0 c 1.239,0 2.603,0.825 2.603,2.478 0,1.652 -1.364,2.477 -2.603,2.477 l -1.645,0 0,-4.955 z m 0.503,4.494 0.981,0 c 1.512,0 2.219,-0.994 2.219,-2.016 0,-1.023 -0.707,-2.017 -2.219,-2.017 l -0.981,0 0,4.033 z m 5.607,0.461 -0.503,0 0,-4.955 0.503,0 0,4.955 z m 2.324,0 -0.629,0 0,-4.955 0.503,0 0,4.242 0.014,0 2.955,-4.242 0.629,0 0,4.955 -0.503,0 0,-4.2 -0.014,0 -2.955,4.2 z m 9.205,-0.538 c -0.44,0.441 -1.007,0.664 -1.791,0.664 -1.478,0 -2.583,-1.098 -2.583,-2.603 0,-1.506 1.105,-2.604 2.583,-2.604 0.602,0 1.323,0.175 1.875,0.503 l 0,2.429 -1.686,0 0,-0.461 1.183,0 0,-1.66 c -0.371,-0.21 -0.861,-0.35 -1.372,-0.35 -1.275,0 -2.038,1.002 -2.038,2.143 0,1.141 0.763,2.142 2.038,2.142 0.609,0 1.078,-0.217 1.414,-0.574 l 0.377,0.371 z m 4.823,0.538 -0.769,0 0,-4.955 0.503,0 0,4.284 0.014,0 1.793,-4.284 0.266,0 1.792,4.284 0.014,0 0,-4.284 0.503,0 0,4.955 -0.769,0 -1.673,-4.031 -1.674,4.031 z m 6.273,-3.653 2.533,0 0.546,-1.302 0.588,0 -2.155,4.955 -0.49,0 -2.156,-4.955 0.588,0 0.546,1.302 z m 1.267,3.066 1.07,-2.605 -2.148,0 1.078,2.605 z m 7.09,-3.291 c -0.371,-0.574 -0.903,-0.742 -1.421,-0.742 -1.274,0 -2.037,1.001 -2.037,2.143 0,1.141 0.763,2.142 2.037,2.142 0.525,0 1.078,-0.329 1.274,-0.651 l 0.441,0.329 c -0.434,0.553 -1.099,0.783 -1.715,0.783 -1.477,0 -2.582,-1.098 -2.582,-2.603 0,-1.506 1.105,-2.604 2.582,-2.604 0.819,0 1.505,0.398 1.834,0.909 l -0.413,0.294 z m 1.611,-1.077 0.503,0 0,2.345 2.703,0 0,-2.345 0.503,0 0,4.955 -0.503,0 0,-2.149 -2.703,0 0,2.149 -0.503,0 0,-4.955 z m 5.907,4.955 -0.503,0 0,-4.955 0.503,0 0,4.955 z m 2.324,0 -0.629,0 0,-4.955 0.503,0 0,4.242 0.014,0 2.955,-4.242 0.629,0 0,4.955 -0.503,0 0,-4.2 -0.014,0 -2.955,4.2 z m 5.67,-2.61 2.401,0 0,0.461 -2.401,0 0,1.688 2.569,0 0,0.461 -3.072,0 0,-4.955 3.156,0 0,0.461 -2.653,0 0,1.884 z M 126.923,0 c -0.391,0.447 -0.839,0.601 -1.4,0.601 -0.805,0 -1.602,-0.447 -1.602,-1.406 0,-1.814 2.541,-1.036 2.541,-2.437 0,-0.581 -0.567,-0.903 -1.065,-0.903 -0.518,0 -0.917,0.238 -1.127,0.602 l -0.454,-0.329 c 0.377,-0.517 0.958,-0.734 1.56,-0.734 0.785,0 1.631,0.531 1.631,1.434 0,1.786 -2.541,1.079 -2.541,2.416 0,0.623 0.539,0.896 1.057,0.896 0.421,0 0.743,-0.161 0.96,-0.483 L 126.923,0 Z"
               style="fill:#ffffff;fill-opacity:1;fill-rule:nonzero;stroke:none"
               id="path3378" />
          </g>
        </g>
      </g>
    </g>
  </g>
</svg>
